<svg xmlns="http://www.w3.org/2000/svg" xmlns:xlink="http://www.w3.org/1999/xlink" viewBox="0 0 176 49">
    <defs>
        <path id="a" d="M24.95.115H.018v48.867h49.863V.115z"/>
    </defs>
    <g fill="none" fill-rule="evenodd">
        <g>
            <mask id="b" fill="#fff">
                <use xlink:href="#a"/>
            </mask>
            <path fill="#BBD036" d="M24.948.115C11.172.115 0 11.06 0 24.56 0 38.066 11.172 49 24.948 49c13.774 0 24.933-10.934 24.933-24.439 0-13.5-11.16-24.446-24.933-24.446" mask="url(#b)"/>
        </g>
        <path fill="#FFFFFE" d="M25.25 16.276h-2.454c-2.632 0-4.325.008-5.235.304-.889.269-1.545.593-1.903 1.102-.33.417-.44.982-.44 1.469 0 .516.057 1.001.577 1.653.642.626 1.696 1.432 3.77 2.677C23.699 26 24.92 28 24.92 30.63c0 4.284-4.134 8.369-11.063 8.369-2.081 0-4.99-.297-6.213-.678L7 38.137c.25-.817 1.074-3.06 1.436-4.009l.651.161c1.363.326 3.494.517 4.908.517 4.053 0 5.629-1.788 5.629-3.359 0-1.437-.803-2.22-4.827-4.607-3.768-2.274-5.07-4.252-5.07-6.986 0-3.276 2.161-5.775 5.291-6.966 1.862-.675 4.436-.888 8.403-.888H27l-1.75 4.276M41.896 12.82C41.126 14.734 33.861 33 33.861 33h-4.858s5.74-14.672 6.691-16.86c-.658 0-1.163.059-3.79.059H28L29.675 12h11.777c.553 0 .66.392.444.82"/>
        <path fill="#FFF" d="M77 18.873h-6.286V36h-4.49V18.873H60V15h17v3.873"/>
        <path fill="#FFF" d="M85.519 26.813c-.266-2.338-1.494-3.64-3.452-3.64-1.959 0-3.353 1.402-3.586 3.64h7.038zm4.215 4.743C88.871 34.862 85.95 37 82.2 37 77.286 37 74 33.627 74 28.583 74 23.607 77.42 20 82.067 20 86.847 20 90 23.574 90 28.984v.668H78.481c.1 2.706 1.395 4.175 3.751 4.175 1.627 0 2.623-.668 3.287-2.271h4.215zM105 30.387c-.534 4.175-3.233 6.613-7.28 6.613-4.676 0-7.72-3.307-7.72-8.35 0-5.244 3.075-8.65 7.782-8.65 4.048 0 6.779 2.338 7.124 6.079h-4.08c-.314-1.737-1.412-2.74-3.012-2.74-2.291 0-3.64 1.905-3.64 5.211 0 3.24 1.286 5.11 3.546 5.11 1.788 0 2.918-1.136 3.232-3.273H105M126.903 22.58c1.3-1.806 2.818-2.58 4.986-2.58 1.92 0 3.5.806 4.306 2.129.588 1 .805 2.032.805 4.064V36h-4.089v-8.936c0-1.129-.062-1.71-.247-2.225-.31-.84-1.208-1.355-2.323-1.355-1.27 0-2.354.645-2.85 1.71-.279.645-.403 1.387-.403 2.741V36H123V20.42h3.903v2.16M140 36h4V20.793h-4V36zm0-17.442h4V15h-4v3.558zM161 30.387c-.534 4.175-3.232 6.613-7.28 6.613-4.676 0-7.72-3.307-7.72-8.35 0-5.244 3.075-8.65 7.782-8.65 4.049 0 6.779 2.338 7.124 6.079h-4.08c-.313-1.737-1.412-2.74-3.012-2.74-2.291 0-3.64 1.905-3.64 5.211 0 3.24 1.286 5.11 3.545 5.11 1.79 0 2.919-1.136 3.233-3.273H161M110.089 21.013c0 .127 0 .158-.032 1.858 1.302-1.763 2.664-2.487 4.74-2.487 1.982 0 3.562.756 4.429 2.14.557.914.774 1.984.774 3.81V36h-4.088v-8.941c0-1.291-.124-1.858-.465-2.33-.465-.599-1.208-.945-2.168-.945-1.239 0-2.23.598-2.757 1.669-.34.692-.433 1.322-.433 3.117V36H106V15h4.089v6.013M171.56 25.11c-.217-1.536-1.023-2.138-2.824-2.138-1.459 0-2.297.568-2.297 1.57 0 1.069.528 1.37 3.694 2.07 4.346.936 5.867 2.238 5.867 4.977 0 3.34-2.639 5.411-6.953 5.411-4.44 0-6.83-1.904-7.047-5.678h3.943c.186 1.87 1.148 2.706 3.165 2.706 1.677 0 2.764-.769 2.764-2.004 0-1.103-.59-1.47-3.384-2.138-2.732-.668-3.446-.902-4.346-1.436-1.149-.702-1.832-2.004-1.832-3.54 0-3.106 2.39-4.91 6.52-4.91 2.513 0 4.407.701 5.525 2.037.652.802.931 1.603 1.055 3.073h-3.85"/>
    </g>
</svg>
